<svg width="36" height="37" viewBox="0 0 36 37" fill="none" xmlns="http://www.w3.org/2000/svg">
<path d="M24 32V29C24 27.4087 23.3679 25.8826 22.2426 24.7574C21.1174 23.6321 19.5913 23 18 23H7.5C5.9087 23 4.38258 23.6321 3.25736 24.7574C2.13214 25.8826 1.5 27.4087 1.5 29V32" stroke="#FCAC11" stroke-width="2" stroke-linecap="round" stroke-linejoin="round"/>
<path d="M12.75 17C16.0637 17 18.75 14.3137 18.75 11C18.75 7.68629 16.0637 5 12.75 5C9.43629 5 6.75 7.68629 6.75 11C6.75 14.3137 9.43629 17 12.75 17Z" stroke="#FCAC11" stroke-width="2" stroke-linecap="round" stroke-linejoin="round"/>
<path d="M25.5 17L28.5 20L34.5 14" stroke="#FCAC11" stroke-width="2" stroke-linecap="round" stroke-linejoin="round"/>
</svg>
