<svg width="87" height="86" viewBox="0 0 87 86" fill="none" xmlns="http://www.w3.org/2000/svg">
<path d="M57.8337 57.3333L43.5003 43L29.167 57.3333" stroke="#666666" stroke-width="2" stroke-linecap="round" stroke-linejoin="round"/>
<path d="M43.5 43V75.25" stroke="#666666" stroke-width="4" stroke-linecap="round" stroke-linejoin="round"/>
<path d="M73.5644 65.8975C77.0594 63.9921 79.8203 60.9771 81.4114 57.3284C83.0026 53.6796 83.3333 49.6049 82.3515 45.7473C81.3696 41.8897 79.1311 38.4689 75.9891 36.0248C72.8472 33.5808 68.9808 32.2526 65.0002 32.25H60.4852C59.4006 28.0548 57.3791 24.16 54.5725 20.8585C51.766 17.5571 48.2476 14.9348 44.2817 13.1888C40.3159 11.4429 36.0059 10.6187 31.6756 10.7782C27.3454 10.9378 23.1077 12.0769 19.2811 14.11C15.4545 16.143 12.1386 19.0171 9.58262 22.5162C7.02667 26.0152 5.2972 30.0482 4.52424 34.3118C3.75127 38.5755 3.95493 42.9589 5.1199 47.1325C6.28488 51.3061 8.38084 55.1613 11.2502 58.4083" stroke="#666666" stroke-width="4" stroke-linecap="round" stroke-linejoin="round"/>
<path d="M57.8337 57.3333L43.5003 43L29.167 57.3333" stroke="#666666" stroke-width="4" stroke-linecap="round" stroke-linejoin="round"/>
</svg>
